# File created by Blade
# Date/Time:  Tue Sep 30 19:31:19 2014
#---------------------------------------------------------
:version 1.10
:name HOM
:units
  mass 1.0
  length 1.000000
  angle deg
:documentation
     Acclaim Skeleton File
:root
   axis xyz
   order TX TY TZ RX RY RZ
   position 0.000000 0.000000 0.000000
   orientation 0 0 0
:bonedata
   begin
      id 1
      name Spine_dum
      direction 0.000000 1.000000 0.000000
      length 3.241213
      axis 0.0 0.0 0.0 xyz
   end
   begin
      id 2
      name LeftUpLeg_dum
      direction 1.000000 0.000000 0.000000
      length 3.434019
      axis 0.0 0.0 0.0 xyz
   end
   begin
      id 3
      name RightUpLeg_dum
      direction -1.000000 0.000000 0.000000
      length 3.434019
      axis 0.0 0.0 0.0 xyz
   end
   begin
      id 4
      name Spine
      direction 0.000000 1.000000 0.000000
      length 0.000000
      axis 0.0 0.0 0.0 xyz
      dof rx ry rz
   end
   begin
      id 5
      name Spine_dum1
      direction 0.000000 1.000000 0.000000
      length 18.382958
      axis 0.0 0.0 0.0 xyz
   end
   begin
      id 6
      name Spine_dum2
      direction 0.000000 1.000000 0.000000
      length 12.828261
      axis 0.0 0.0 0.0 xyz
   end
   begin
      id 7
      name Spine_dum3
      direction 0.000000 1.000000 0.000000
      length 12.828261
      axis 0.0 0.0 0.0 xyz
   end
   begin
      id 8
      name Head
      direction 0.000000 1.000000 0.000000
      length 4.527550
      axis 0.0 0.0 0.0 xyz
      dof rx ry rz
   end
   begin
      id 9
      name LeftShoulder
      direction 1.000000 0.000000 0.000000
      length 7.748055
      axis 0.0 0.0 -90.0 xyz
      dof rx ry rz
   end
   begin
      id 10
      name LeftArm
      direction 1.000000 0.000000 0.000000
      length 10.635614
      axis 0.0 0.0 -90.0 xyz
      dof rx ry rz
   end
   begin
      id 11
      name LeftForeArm
      direction 1.000000 0.000000 0.000000
      length 8.346755
      axis 0.0 0.0 -90.0 xyz
      dof ry rz rx
   end
   begin
      id 12
      name LeftHand
      direction 0.000000 0.000000 0.000000
      length 0.000000
      axis 0.0 0.0 -90.0 xyz
      dof rx ry rz
   end
   begin
      id 13
      name LeftHand_dum1
      direction 0.000000 0.000000 0.000000
      length 0.000000
      axis 0.0 0.0 -90.0 xyz
   end
   begin
      id 14
      name LeftHand_dum2
      direction 1.000000 0.000000 0.000000
      length 3.937000
      axis 0.0 0.0 -90.0 xyz
   end
   begin
      id 15
      name LeftHandThumb1
      direction 0.000000 0.000000 1.000000
      length 3.937000
      axis 0.0 0.0 -90.0 xyz
      dof rx rz ry
   end
   begin
      id 16
      name RightShoulder
      direction -1.000000 0.000000 0.000000
      length 7.748055
      axis 0.0 0.0 90.0 xyz
      dof rx ry rz
   end
   begin
      id 17
      name RightArm
      direction -1.000000 0.000000 0.000000
      length 10.635614
      axis 0.0 0.0 90.0 xyz
      dof rx ry rz
   end
   begin
      id 18
      name RightForeArm
      direction -1.000000 0.000000 0.000000
      length 8.346755
      axis 0.0 0.0 90.0 xyz
      dof ry rz rx
   end
   begin
      id 19
      name RightHand
      direction 0.000000 0.000000 0.000000
      length 0.000000
      axis 0.0 0.0 90.0 xyz
      dof rx ry rz
   end
   begin
      id 20
      name RightHand_dum1
      direction 0.000000 0.000000 0.000000
      length 0.000000
      axis 0.0 0.0 90.0 xyz
   end
   begin
      id 21
      name RightHand_dum2
      direction -1.000000 0.000000 0.000000
      length 3.937000
      axis 0.0 0.0 90.0 xyz
   end
   begin
      id 22
      name RightHandThumb1
      direction 0.000000 0.000000 1.000000
      length 3.937000
      axis 0.0 0.0 90.0 xyz
      dof rx rz ry
   end
   begin
      id 23
      name LeftUpLeg
      direction 0.000000 -1.000000 0.000000
      length 15.713025
      axis 0.0 0.0 0.0 xyz
      dof rx ry rz
   end
   begin
      id 24
      name LeftLeg
      direction 0.000000 -1.000000 0.000000
      length 14.435119
      axis 0.0 0.0 0.0 xyz
      dof rx ry rz
   end
   begin
      id 25
      name LeftFoot
      direction 0.000000 -0.258819 0.965926
      length 4.938895
      axis 15.0 0.0 0.0 xyz
      dof rx ry rz
   end
   begin
      id 26
      name LeftToeBase
      direction 0.000000 0.000000 1.000000
      length 2.952750
      axis 0.0 0.0 0.0 xyz
      dof rx ry rz
   end
   begin
      id 27
      name RightUpLeg
      direction 0.000000 -1.000000 0.000000
      length 15.713025
      axis 0.0 0.0 0.0 xyz
      dof rx ry rz
   end
   begin
      id 28
      name RightLeg
      direction 0.000000 -1.000000 0.000000
      length 14.435119
      axis 0.0 0.0 0.0 xyz
      dof rx ry rz
   end
   begin
      id 29
      name RightFoot
      direction 0.000000 -0.258819 0.965926
      length 4.938895
      axis 15.0 0.0 0.0 xyz
      dof rx ry rz
   end
   begin
      id 30
      name RightToeBase
      direction 0.000000 0.000000 1.000000
      length 2.952750
      axis 0.0 0.0 0.0 xyz
      dof rx ry rz
   end
:hierarchy
   begin
      root Spine_dum LeftUpLeg_dum RightUpLeg_dum
      Spine_dum Spine
      LeftUpLeg_dum LeftUpLeg
      RightUpLeg_dum RightUpLeg
      Spine Spine_dum1 Spine_dum2 Spine_dum3
      Spine_dum1 Head
      Spine_dum2 LeftShoulder
      Spine_dum3 RightShoulder
      LeftShoulder LeftArm
      LeftArm LeftForeArm
      LeftForeArm LeftHand
      LeftHand LeftHand_dum1 LeftHand_dum2
      LeftHand_dum1 LeftHandThumb1
      RightShoulder RightArm
      RightArm RightForeArm
      RightForeArm RightHand
      RightHand RightHand_dum1 RightHand_dum2
      RightHand_dum1 RightHandThumb1
      LeftUpLeg LeftLeg
      LeftLeg LeftFoot
      LeftFoot LeftToeBase
      RightUpLeg RightLeg
      RightLeg RightFoot
      RightFoot RightToeBase
   end

# File created by Blade
# Date/Time:  Thu Sep 25 17:54:10 2014
# Frame Rate: 120.000 fps
#------------------------------------------------------
:FULLY-SPECIFIED
:DEGREES
846
root -0.219799 32.426006 -5.250089 30.350589 4.593233 0.973999
Spine -35.833064 -1.052362 1.467420
Head 25.184093 7.040437 -1.099866
LeftShoulder -18.013592 21.106881 36.847763
LeftArm 134.885367 -73.233328 -125.224143
LeftForeArm -28.217939 -0.000000 88.830833
LeftHand -6.601243 0.000000 -8.119890
LeftHandThumb1 -26.253704 0.000000 33.147579
RightShoulder -27.135358 -7.522261 -59.214804
RightArm 125.759930 59.533821 108.071966
RightForeArm 36.342864 -0.000000 91.549523
RightHand 9.566696 -0.000000 -4.486835
RightHandThumb1 -24.326973 -0.000000 -32.862282
LeftUpLeg -22.661971 3.033367 0.188905
LeftLeg -1.961244 -0.000000 0.000000
LeftFoot -5.419201 -4.082366 -2.555727
LeftToeBase 2.889407 -0.000000 -0.000000
RightUpLeg -21.826918 -8.103509 4.662598
RightLeg -2.447418 -0.000000 0.000000
RightFoot -10.401673 -3.457346 10.941112
RightToeBase 15.490923 -0.000000 -0.000000
847
root -0.217603 32.429291 -5.257064 30.328647 4.656865 0.976077
Spine -35.823117 -1.105313 1.447038
Head 24.928823 6.708925 -1.337854
LeftShoulder -17.902618 20.997042 37.141569
LeftArm 134.654332 -72.723583 -125.520132
LeftForeArm -24.292644 -0.000000 90.345486
LeftHand -10.329165 -0.000000 -7.678877
LeftHandThumb1 -26.253704 0.000000 33.147579
RightShoulder -27.055777 -7.566699 -58.903457
RightArm 126.048585 59.663365 108.555025
RightForeArm 36.092222 -0.000000 91.591280
RightHand 9.093589 -0.000000 -4.020625
RightHandThumb1 -24.326973 -0.000000 -32.862282
LeftUpLeg -22.664769 3.016278 0.193760
LeftLeg -1.956133 -0.000000 0.000000
LeftFoot -5.383977 -4.113312 -2.533193
LeftToeBase 2.897035 -0.000000 -0.000000
RightUpLeg -21.822317 -8.132333 4.677564
RightLeg -2.438866 -0.000000 0.000000
RightFoot -10.402734 -3.489857 11.003962
RightToeBase 15.567309 -0.000000 -0.000000
848
root -0.213255 32.432431 -5.262620 30.251218 4.739439 0.999210
Spine -35.756159 -1.204666 1.411399
Head 24.726514 6.405219 -1.492228
LeftShoulder -17.724355 20.885722 37.516918
LeftArm 133.799364 -72.508595 -125.198207
LeftForeArm -19.854287 0.000000 92.203058
LeftHand -14.575422 -0.000000 -6.265957
LeftHandThumb1 -26.253704 0.000000 33.147579
RightShoulder -26.963366 -7.663027 -58.501135
RightArm 126.445599 59.857278 109.081492
RightForeArm 35.467471 -0.000000 91.644410
RightHand 8.798653 -0.000000 -3.931497
RightHandThumb1 -24.326973 -0.000000 -32.862282
LeftUpLeg -22.609604 2.970051 0.189748
LeftLeg -1.952898 -0.000000 0.000000
LeftFoot -5.330434 -4.144117 -2.525547
LeftToeBase 2.871568 -0.000000 -0.000000
RightUpLeg -21.784080 -8.290925 4.709871
RightLeg -2.382721 -0.000000 0.000000
RightFoot -10.404370 -3.424682 10.979033
RightToeBase 15.579098 -0.000000 -0.000000
849
root -0.214119 32.434540 -5.268598 30.236404 4.777305 0.987547
Spine -35.738701 -1.218678 1.404475
Head 24.482202 6.155799 -1.778677
LeftShoulder -17.663779 20.824507 37.610299
LeftArm 133.366396 -72.431876 -124.816506
LeftForeArm -15.663356 -0.000000 92.703918
LeftHand -15.443208 -0.000000 -6.245325
LeftHandThumb1 -26.253704 0.000000 33.147579
RightShoulder -26.950363 -7.688299 -58.307329
RightArm 126.418355 60.031010 109.400006
RightForeArm 35.259262 -0.000000 91.744596
RightHand 8.676472 -0.000000 -3.865665
RightHandThumb1 -24.326973 -0.000000 -32.862282
LeftUpLeg -22.612917 2.985963 0.199215
LeftLeg -1.954204 -0.000000 0.000000
LeftFoot -5.307329 -4.176477 -2.497116
LeftToeBase 2.856097 -0.000000 -0.000000
RightUpLeg -21.751658 -8.245783 4.707631
RightLeg -2.433265 -0.000000 0.000000
RightFoot -10.354772 -3.498484 11.027033
RightToeBase 15.533235 -0.000000 -0.000000
850
root -0.215471 32.431800 -5.272964 30.249930 4.810023 1.007848
Spine -35.737478 -1.234538 1.423731
Head 24.153727 5.915244 -2.283998
LeftShoulder -17.740521 20.834479 37.444629
LeftArm 133.021723 -72.506468 -124.172218
LeftForeArm -13.792560 -0.000000 92.494447
LeftHand -14.732600 -0.000000 -5.548419
LeftHandThumb1 -26.253704 0.000000 33.147579
RightShoulder -27.006060 -7.762312 -58.237276
RightArm 126.376102 60.075503 109.812865
RightForeArm 35.199162 -0.000000 91.834791
RightHand 8.660796 0.000000 -3.954287
RightHandThumb1 -24.326973 -0.000000 -32.862282
LeftUpLeg -22.627741 2.968385 0.190743
LeftLeg -1.973422 -0.000000 0.000000
LeftFoot -5.299840 -4.196497 -2.484342
LeftToeBase 2.834411 -0.000000 -0.000000
RightUpLeg -21.762280 -8.271191 4.704866
RightLeg -2.444174 -0.000000 0.000000
RightFoot -10.376336 -3.512759 10.987249
RightToeBase 15.519170 -0.000000 -0.000000
851
root -0.215969 32.430935 -5.278962 30.273402 4.841948 1.018329
Spine -35.749805 -1.272197 1.454309
Head 23.862522 5.681210 -2.743512
LeftShoulder -17.779419 20.832956 37.316089
LeftArm 132.893750 -72.610462 -123.772509
LeftForeArm -12.949031 0.000000 92.312618
LeftHand -14.376316 0.000000 -5.165027
LeftHandThumb1 -26.253704 0.000000 33.147579
RightShoulder -27.032054 -7.888600 -58.076771
RightArm 126.581648 60.149096 110.399349
RightForeArm 35.156779 -0.000000 91.872564
RightHand 8.620027 -0.000000 -3.818489
RightHandThumb1 -24.326973 -0.000000 -32.862282
LeftUpLeg -22.663040 2.979898 0.175679
LeftLeg -1.980730 -0.000000 0.000000
LeftFoot -5.292806 -4.243388 -2.495926
LeftToeBase 2.869811 -0.000000 -0.000000
RightUpLeg -21.785119 -8.291122 4.709958
RightLeg -2.459998 -0.000000 0.000000
RightFoot -10.385062 -3.510099 10.987717
RightToeBase 15.540042 -0.000000 -0.000000
852
root -0.218936 32.432307 -5.286847 30.318410 4.888226 0.996126
Spine -35.798090 -1.331511 1.487275
Head 23.605143 5.285148 -3.184223
LeftShoulder -17.775523 20.830060 37.355272
LeftArm 132.295439 -72.690443 -123.066253
LeftForeArm -11.080055 -0.000000 92.368771
LeftHand -14.752117 -0.000000 -4.635989
LeftHandThumb1 -26.253704 0.000000 33.147579
RightShoulder -27.007572 -8.053875 -57.777133
RightArm 126.959210 60.262705 111.050344
RightForeArm 35.266434 0.000000 91.833075
RightHand 8.719442 -0.000000 -3.759156
RightHandThumb1 -24.326973 -0.000000 -32.862282
LeftUpLeg -22.731314 2.973855 0.208550
LeftLeg -1.981031 -0.000000 0.000000
LeftFoot -5.285568 -4.257972 -2.495138
LeftToeBase 2.888750 -0.000000 -0.000000
RightUpLeg -21.830885 -8.284718 4.750929
RightLeg -2.478210 -0.000000 0.000000
RightFoot -10.348627 -3.550053 10.902145
RightToeBase 15.496433 -0.000000 -0.000000
853
root -0.219800 32.432475 -5.294642 30.342807 4.919964 1.003866
Spine -35.812705 -1.375580 1.498070
Head 23.368097 5.036751 -3.505872
LeftShoulder -17.748024 20.766550 37.351125
LeftArm 131.865335 -72.811195 -122.454646
LeftForeArm -9.778057 -0.000000 92.240756
LeftHand -15.068744 -0.000000 -4.361898
LeftHandThumb1 -26.253704 0.000000 33.147579
RightShoulder -27.014770 -8.155510 -57.551049
RightArm 127.248528 60.308856 111.630245
RightForeArm 35.397923 0.000000 91.708605
RightHand 8.738443 0.000000 -3.698811
RightHandThumb1 -24.326973 -0.000000 -32.862282
LeftUpLeg -22.770878 2.965922 0.205779
LeftLeg -1.985709 -0.000000 0.000000
LeftFoot -5.266820 -4.282433 -2.474926
LeftToeBase 2.871524 -0.000000 -0.000000
RightUpLeg -21.861094 -8.330891 4.774437
RightLeg -2.496606 -0.000000 0.000000
RightFoot -10.336139 -3.531410 10.937371
RightToeBase 15.491634 -0.000000 -0.000000
854
root -0.220168 32.432210 -5.303567 30.397410 4.944979 1.005579
Spine -35.860153 -1.410235 1.534694
Head 23.145622 4.865524 -3.831728
LeftShoulder -17.751627 20.720287 37.276309
LeftArm 131.406127 -72.965697 -121.704692
LeftForeArm -9.331016 -0.000000 91.802968
LeftHand -14.835017 -0.000000 -4.062686
LeftHandThumb1 -26.253704 0.000000 33.147579
RightShoulder -27.043943 -8.219966 -57.361816
RightArm 127.451871 60.330578 112.102864
RightForeArm 35.718405 -0.000000 91.509514
RightHand 8.822029 -0.000000 -3.584305
RightHandThumb1 -24.326973 -0.000000 -32.862282
LeftUpLeg -22.842411 2.954988 0.206861
LeftLeg -1.992770 -0.000000 0.000000
LeftFoot -5.256693 -4.291488 -2.475735
LeftToeBase 2.884567 -0.000000 -0.000000
RightUpLeg -21.924030 -8.340475 4.790599
RightLeg -2.508920 -0.000000 0.000000
RightFoot -10.323901 -3.539563 10.936282
RightToeBase 15.456097 -0.000000 -0.000000
855
root -0.221330 32.431757 -5.311798 30.446194 4.959474 1.010397
Spine -35.904833 -1.439029 1.546987
Head 22.943674 4.715757 -4.092508
LeftShoulder -17.736726 20.660781 37.235498
LeftArm 130.824727 -73.139977 -120.861016
LeftForeArm -9.442746 0.000000 91.277345
LeftHand -14.455195 -0.000000 -3.814882
LeftHandThumb1 -26.253704 0.000000 33.147579
RightShoulder -27.067344 -8.241465 -57.189162
RightArm 127.588907 60.354290 112.537758
RightForeArm 35.920264 -0.000000 91.269833
RightHand 8.863854 0.000000 -3.581732
RightHandThumb1 -24.326973 -0.000000 -32.862282
LeftUpLeg -22.906460 2.952744 0.200824
LeftLeg -1.996945 -0.000000 0.000000
LeftFoot -5.247223 -4.297521 -2.462222
LeftToeBase 2.857409 -0.000000 -0.000000
RightUpLeg -21.978972 -8.358496 4.807170
RightLeg -2.528055 -0.000000 0.000000
RightFoot -10.318339 -3.530228 10.944975
RightToeBase 15.489184 -0.000000 -0.000000
856
root -0.223019 32.430933 -5.320053 30.498452 4.962234 1.010711
Spine -35.956849 -1.463409 1.563588
Head 22.743304 4.605849 -4.352790
LeftShoulder -17.745737 20.666367 37.194202
LeftArm 130.559849 -73.204172 -120.316822
LeftForeArm -9.577652 -0.000000 90.718645
LeftHand -14.524109 0.000000 -3.907934
LeftHandThumb1 -26.253704 0.000000 33.147579
RightShoulder -27.080039 -8.316548 -57.022145
RightArm 127.816274 60.357151 113.085354
RightForeArm 36.190063 -0.000000 91.002227
RightHand 8.846881 -0.000000 -3.552599
RightHandThumb1 -24.326973 -0.000000 -32.862282
LeftUpLeg -22.966138 2.946350 0.202886
LeftLeg -2.011499 -0.000000 0.000000
LeftFoot -5.241956 -4.295923 -2.463590
LeftToeBase 2.883515 -0.000000 -0.000000
RightUpLeg -22.035880 -8.346128 4.814287
RightLeg -2.545755 -0.000000 0.000000
RightFoot -10.324048 -3.542409 10.947180
RightToeBase 15.510636 -0.000000 -0.000000
